<svg width="32" height="18" viewBox="0 0 32 18" fill="none" xmlns="http://www.w3.org/2000/svg">
<g clip-path="url(#clip0_3_42)">
<path d="M30.6198 4.26264C29.9322 2.9709 28.9052 1.89129 27.6493 1.14014C26.3935 0.388986 24.9564 -0.00522352 23.4931 -9.98534e-06H0.924598C0.771619 0.00128025 0.622421 0.0476817 0.495694 0.133382C0.368967 0.219082 0.270345 0.340271 0.212181 0.481768C0.154018 0.623265 0.138899 0.778779 0.168719 0.928829C0.198539 1.07888 0.271972 1.21679 0.379819 1.3253L5.29557 6.26972C5.51061 6.4859 5.76627 6.65743 6.04785 6.77444C6.32943 6.89144 6.63136 6.95161 6.93628 6.95149H22.8464C23.1158 6.94877 23.3831 6.99915 23.6331 7.09974C23.8831 7.20034 24.1108 7.34918 24.3032 7.53778C24.4956 7.72637 24.649 7.95102 24.7547 8.1989C24.8603 8.44678 24.916 8.71304 24.9188 8.98247C24.9215 9.2519 24.8711 9.51923 24.7705 9.76919C24.6699 10.0191 24.5211 10.2469 24.3325 10.4393C24.1439 10.6317 23.9192 10.7851 23.6714 10.8908C23.4235 10.9964 23.1572 11.0521 22.8878 11.0549H11.9189C11.7657 11.0555 11.616 11.1015 11.4888 11.1869C11.3616 11.2724 11.2625 11.3936 11.204 11.5352C11.1454 11.6768 11.13 11.8326 11.1597 11.9829C11.1894 12.1333 11.2629 12.2715 11.371 12.3802L16.2899 17.3278C16.5048 17.5441 16.7605 17.7157 17.0421 17.8327C17.3237 17.9497 17.6257 18.0098 17.9306 18.0095H22.891C29.3455 18.0095 34.2262 11.109 30.6198 4.25946" fill="#EB1700"/>
</g>
<defs>
<clipPath id="clip0_3_42">
<rect width="32" height="18" fill="white"/>
</clipPath>
</defs>
</svg>
