<svg width="2024" height="1345" viewBox="0 0 2024 1345" fill="none" xmlns="http://www.w3.org/2000/svg">
<path d="M218.561 886.326C218.561 963.553 235.533 1022.92 257.694 1058.79C286.746 1105.78 330.103 1125.71 374.274 1125.71C431.268 1125.71 483.37 1111.56 583.868 972.595C664.356 861.202 759.221 704.896 823.033 606.843L931.091 440.755C1006.17 325.434 1093.03 197.217 1192.71 110.356C1274.02 39.4287 1361.77 0 1450.11 0C1598.34 0 1739.6 85.8979 1847.66 247.021C1965.94 423.486 2023.38 645.753 2023.38 875.135C2023.38 1011.5 1996.48 1111.71 1950.75 1190.86C1906.58 1267.42 1820.46 1343.9 1675.56 1343.9V1125.64C1799.63 1125.64 1830.54 1011.65 1830.54 881.213C1830.54 695.336 1787.18 489.003 1691.72 341.59C1623.98 237.016 1536.16 173.13 1439.51 173.13C1335.01 173.13 1250.97 251.913 1156.47 392.432C1106.22 467.065 1054.64 558.077 996.756 660.724L933.018 773.674C804.949 1000.76 772.488 1052.42 708.527 1137.79C596.319 1287.21 500.49 1343.9 374.349 1343.9C224.713 1343.9 130.07 1279.13 71.4456 1181.45C23.4941 1101.92 0 997.497 0 878.47L218.561 886.326Z" fill="#0081FB"/>
<path d="M172.315 262.511C272.516 108.058 417.112 0.0742188 582.979 0.0742188C679.03 0.0742188 774.489 28.5341 874.172 109.911C983.267 198.922 1099.48 345.444 1244.52 587.055L1296.55 673.768C1422.09 882.917 1493.47 990.456 1535.27 1041.22C1589 1106.37 1626.65 1125.79 1675.56 1125.79C1799.63 1125.79 1830.54 1011.8 1830.54 881.361L2023.31 875.284C2023.31 1011.65 1996.4 1111.85 1950.67 1191.01C1906.5 1267.57 1820.38 1344.05 1675.49 1344.05C1585.44 1344.05 1505.62 1324.49 1417.43 1241.26C1349.61 1177.37 1270.31 1063.9 1209.31 961.848L1027.88 658.723C936.872 506.568 853.346 393.174 804.95 341.813C752.922 286.598 686.145 219.896 579.422 219.896C493.079 219.896 419.781 280.447 358.414 373.163L172.315 262.511Z" fill="url(#paint0_linear_1202_2)"/>
<path d="M579.421 219.747C493.079 219.747 419.78 280.298 358.414 373.015C271.627 503.974 218.561 698.967 218.561 886.326C218.561 963.553 235.533 1022.92 257.694 1058.79L71.3715 1181.52C23.4941 1101.92 0 997.497 0 878.47C0 662.132 59.3651 436.604 172.314 262.437C272.516 107.984 417.112 0 582.979 0L579.421 219.747Z" fill="url(#paint1_linear_1202_2)"/>
<defs>
<linearGradient id="paint0_linear_1202_2" x1="438.605" y1="637.163" x2="1831.75" y2="707.527" gradientUnits="userSpaceOnUse">
<stop stop-color="#0064E1"/>
<stop offset="0.4" stop-color="#0064E1"/>
<stop offset="0.83" stop-color="#0073EE"/>
<stop offset="1" stop-color="#0082FB"/>
</linearGradient>
<linearGradient id="paint1_linear_1202_2" x1="291.475" y1="978.057" x2="291.475" y2="464.426" gradientUnits="userSpaceOnUse">
<stop stop-color="#0082FB"/>
<stop offset="1" stop-color="#0064E0"/>
</linearGradient>
</defs>
</svg>
