<svg width="50" height="35" viewBox="0 0 50 35" fill="none" xmlns="http://www.w3.org/2000/svg">
<g clip-path="url(#clip0_10_531)">
<mask id="mask0_10_531" style="mask-type:alpha" maskUnits="userSpaceOnUse" x="0" y="0" width="50" height="35">
<path d="M0.0109882 0.0915527H49.8278V34.8901H0.0109882V0.0915527Z" fill="white"/>
</mask>
<g mask="url(#mask0_10_531)">
<path fill-rule="evenodd" clip-rule="evenodd" d="M20.696 3.90107C22.304 2.22708 24.5421 1.19045 27.0147 1.19045C30.3114 1.19045 33.1685 3.02195 34.707 5.75089C36.0726 5.14041 37.5518 4.82522 39.0476 4.82598C44.9817 4.82598 49.7985 9.67946 49.7985 15.6685C49.7985 21.6575 44.9817 26.511 39.0476 26.511C38.3223 26.511 37.6154 26.4381 36.9231 26.3003C35.5769 28.6996 33.0037 30.3296 30.0733 30.3296C28.8802 30.332 27.7024 30.0614 26.63 29.5384C25.2656 32.7436 22.0879 34.9963 18.3883 34.9963C14.5238 34.9963 11.2454 32.5604 9.98168 29.1355C9.41923 29.2542 8.84591 29.3139 8.27106 29.3135C3.67399 29.3135 -0.0439568 25.5406 -0.0439568 20.9069C-0.0439568 17.7934 1.63004 15.0828 4.11355 13.6176C3.58667 12.4038 3.31547 11.0946 3.31685 9.7714C3.31685 4.42342 7.65751 0.101074 13.0055 0.101074C16.1374 0.101074 18.9396 1.59375 20.6978 3.9106" fill="#00A1E0"/>
<path fill-rule="evenodd" clip-rule="evenodd" d="M7.21612 18.1868C7.1848 18.2685 7.22729 18.2855 7.23736 18.3C7.33095 18.3677 7.42601 18.4168 7.52124 18.472C8.0304 18.7412 8.51026 18.8199 9.01209 18.8199C10.0341 18.8199 10.6696 18.276 10.6696 17.4005V17.3833C10.6696 16.5738 9.95165 16.2789 9.28132 16.0683L9.19359 16.0399C8.68626 15.8754 8.24853 15.7322 8.24853 15.3989V15.3818C8.24853 15.0961 8.50494 14.8855 8.90055 14.8855C9.34011 14.8855 9.86392 15.0318 10.1991 15.217C10.1991 15.217 10.2984 15.2811 10.3344 15.1853C10.354 15.1335 10.5249 14.6762 10.5432 14.6249C10.5626 14.5712 10.5286 14.5307 10.4936 14.5099C10.109 14.2754 9.57784 14.1161 9.02839 14.1161L8.92637 14.1165C7.99048 14.1165 7.33663 14.6824 7.33663 15.4919V15.5093C7.33663 16.3628 8.05824 16.6412 8.73223 16.8335L8.84066 16.8672C9.3315 17.0181 9.75641 17.1492 9.75641 17.4936V17.5108C9.75641 17.8276 9.47985 18.0639 9.03663 18.0639C8.86428 18.0639 8.31502 18.061 7.71978 17.6848C7.6478 17.6428 7.60678 17.6126 7.55128 17.5787C7.52198 17.561 7.44872 17.5289 7.41685 17.6249L7.21538 18.1853L7.21612 18.1868ZM22.1788 18.1853C22.1474 18.267 22.1899 18.284 22.2004 18.2985C22.2936 18.3663 22.389 18.4154 22.4842 18.4705C22.9934 18.7397 23.4733 18.8185 23.9751 18.8185C24.9971 18.8185 25.6326 18.2745 25.6326 17.3991V17.3818C25.6326 16.5723 24.9165 16.2774 24.2443 16.0668L24.1566 16.0384C23.6493 15.874 23.2115 15.7307 23.2115 15.3974V15.3804C23.2115 15.0947 23.4679 14.884 23.8636 14.884C24.3031 14.884 24.8251 15.0304 25.1621 15.2155C25.1621 15.2155 25.2614 15.2796 25.2976 15.1839C25.317 15.132 25.4881 14.6747 25.5046 14.6234C25.5242 14.5698 25.4899 14.5293 25.4551 14.5084C25.0705 14.274 24.5394 14.1146 23.9899 14.1146L23.8877 14.115C22.9518 14.115 22.298 14.6809 22.298 15.4904V15.5078C22.298 16.3613 23.0196 16.6397 23.6936 16.832L23.8018 16.8657C24.2945 17.0166 24.7176 17.1478 24.7176 17.4921V17.5093C24.7176 17.8262 24.441 18.0624 23.9978 18.0624C23.8251 18.0624 23.2744 18.0595 22.681 17.6833C22.609 17.6414 22.5668 17.6124 22.5123 17.5773C22.4938 17.5655 22.4075 17.5318 22.378 17.6234L22.1766 18.1839L22.1788 18.1853ZM32.3963 16.4696C32.3963 16.9641 32.304 17.3542 32.1234 17.6307C31.9432 17.9036 31.6711 18.0373 31.2919 18.0373C30.9128 18.0373 30.6418 17.9047 30.4641 17.6326C30.2852 17.3578 30.1949 16.9659 30.1949 16.4714C30.1949 15.9769 30.2857 15.5886 30.4641 15.3157C30.6414 15.0447 30.911 14.9146 31.2919 14.9146C31.6729 14.9146 31.944 15.0459 32.1234 15.3157C32.3051 15.5886 32.3963 15.9769 32.3963 16.4714V16.4696ZM33.2498 15.5538C33.1658 15.2699 33.0355 15.0209 32.8615 14.8121C32.6874 14.6033 32.4678 14.4348 32.2059 14.3139C31.9458 14.1921 31.6381 14.1307 31.2901 14.1307C30.9421 14.1307 30.6363 14.1925 30.3744 14.3139C30.1143 14.4355 29.8927 14.6033 29.7187 14.8121C29.5451 15.0209 29.4147 15.2699 29.3304 15.5538C29.2471 15.8359 29.2048 16.1436 29.2048 16.4714C29.2048 16.7992 29.2471 17.1069 29.3304 17.389C29.4141 17.6729 29.5447 17.922 29.7187 18.1307C29.8929 18.3395 30.1143 18.5062 30.3744 18.6252C30.6363 18.7439 30.944 18.8044 31.2901 18.8044C31.6363 18.8044 31.944 18.7439 32.204 18.6252C32.4641 18.5066 32.6857 18.3395 32.8597 18.1307C33.0335 17.922 33.1637 17.6729 33.248 17.389C33.3311 17.1069 33.3734 16.7992 33.3734 16.4714C33.3734 16.1454 33.3311 15.8359 33.248 15.5538H33.2498ZM40.2626 17.8981C40.2346 17.8152 40.1537 17.8465 40.1537 17.8465C40.0297 17.8939 39.8973 17.9379 39.7562 17.9599C39.6141 17.9822 39.4559 17.9934 39.2892 17.9934C38.8771 17.9934 38.5474 17.8705 38.313 17.6271C38.0767 17.3835 37.9449 16.9915 37.9467 16.4604C37.948 15.9769 38.0648 15.6143 38.2745 15.3359C38.4815 15.0611 38.8002 14.9183 39.2214 14.9183C39.5731 14.9183 39.8423 14.9591 40.1244 15.0474C40.1244 15.0474 40.1912 15.0765 40.2233 14.9884C40.2982 14.7815 40.3535 14.6331 40.4339 14.406C40.4566 14.341 40.4009 14.3135 40.3806 14.3056C40.27 14.2624 40.0088 14.1915 39.811 14.1617C39.626 14.1335 39.4117 14.1188 39.17 14.1188C38.811 14.1188 38.4923 14.1802 38.2194 14.3018C37.9465 14.4232 37.7158 14.5912 37.5326 14.8C37.3495 15.0088 37.2103 15.2578 37.1169 15.5417C37.0244 15.8238 36.9777 16.1333 36.9777 16.4611C36.9777 17.1681 37.1681 17.7414 37.5454 18.1608C37.9227 18.582 38.4905 18.7945 39.2304 18.7945C39.6681 18.7945 40.1169 18.706 40.4392 18.5784C40.4392 18.5784 40.5007 18.5487 40.474 18.4769L40.2634 17.8981H40.2626ZM41.756 15.9934C41.7969 15.7187 41.8722 15.4897 41.9905 15.3121C42.1676 15.041 42.4374 14.8926 42.8165 14.8926C43.1956 14.8926 43.4465 15.0417 43.626 15.3121C43.7451 15.4906 43.7971 15.7278 43.8165 15.9934L41.7469 15.993L41.756 15.9934ZM44.6315 15.389C44.5588 15.1161 44.3788 14.8395 44.2615 14.7132C44.0747 14.5135 43.8934 14.3725 43.7121 14.2956C43.4503 14.1843 43.1687 14.1271 42.8842 14.1276C42.5234 14.1276 42.1956 14.1886 41.93 14.3126C41.6645 14.4375 41.441 14.6075 41.2652 14.8199C41.0896 15.0324 40.9575 15.2833 40.8733 15.5709C40.789 15.8547 40.7465 16.1661 40.7465 16.4921C40.7465 16.8254 40.7907 17.135 40.8775 17.4152C40.9652 17.6972 41.1064 17.9445 41.2969 18.1496C41.4874 18.3566 41.731 18.5177 42.024 18.6313C42.3152 18.7439 42.6687 18.8024 43.0734 18.8011C43.9086 18.7983 44.3482 18.6124 44.5277 18.5117C44.5597 18.4937 44.5899 18.4628 44.5522 18.3736L44.3636 17.8443C44.3346 17.7654 44.2548 17.7939 44.2548 17.7939C44.0478 17.8712 43.7548 18.01 43.0679 18.0082C42.6192 18.0075 42.2877 17.8751 42.0789 17.6676C41.8665 17.4551 41.7603 17.1456 41.7438 16.706L44.6375 16.7082C44.6375 16.7082 44.7137 16.7075 44.7216 16.6331C44.7247 16.6024 44.8207 16.0397 44.6354 15.3895L44.6315 15.389ZM18.6242 15.9934C18.665 15.7187 18.7405 15.4897 18.8586 15.3121C19.0359 15.041 19.3055 14.8926 19.6846 14.8926C20.0637 14.8926 20.3147 15.0417 20.4941 15.3121C20.613 15.4906 20.665 15.7278 20.6846 15.9934L18.615 15.993L18.6242 15.9934ZM21.4996 15.389C21.4271 15.1161 21.2469 14.8395 21.1297 14.7132C20.9429 14.5135 20.7615 14.3725 20.5802 14.2956C20.3184 14.1843 20.0368 14.1271 19.7524 14.1276C19.3916 14.1276 19.0637 14.1886 18.7982 14.3126C18.5326 14.4375 18.3092 14.6075 18.1333 14.8199C17.9581 15.0324 17.8256 15.2833 17.7414 15.5709C17.6573 15.8547 17.615 16.1661 17.615 16.4921C17.615 16.8254 17.6588 17.135 17.7462 17.4152C17.8337 17.6972 17.9751 17.9445 18.1637 18.1496C18.3542 18.3566 18.5978 18.5177 18.8908 18.6313C19.182 18.7439 19.5337 18.8024 19.9403 18.8011C20.7755 18.7983 21.215 18.6124 21.3945 18.5117C21.4264 18.4937 21.4568 18.4628 21.4189 18.3736L21.2302 17.8443C21.2011 17.7654 21.1212 17.7939 21.1212 17.7939C20.9143 17.8712 20.6212 18.01 19.9344 18.0082C19.4875 18.0075 19.1542 17.8751 18.9454 17.6676C18.733 17.4551 18.6267 17.1456 18.6103 16.706L21.504 16.7082C21.504 16.7082 21.5802 16.7075 21.5881 16.6331C21.5912 16.6024 21.6872 16.0397 21.5016 15.3895L21.4996 15.389ZM12.3788 17.8798C12.2654 17.7893 12.2496 17.7672 12.2121 17.7084C12.1548 17.6199 12.1255 17.4941 12.1255 17.3329C12.1255 17.0802 12.2097 16.897 12.3837 16.7743C12.3819 16.7747 12.6328 16.5582 13.2225 16.5655C13.485 16.5702 13.7469 16.5926 14.0064 16.6324V17.9456H14.0068C14.0068 17.9456 13.6405 18.0245 13.2266 18.0494C12.6386 18.0848 12.3786 17.8802 12.3804 17.8807L12.3788 17.8798ZM13.5289 15.8469C13.4117 15.8383 13.2597 15.834 13.0784 15.834C12.8311 15.834 12.5912 15.8648 12.3678 15.9252C12.1425 15.9861 11.9392 16.0802 11.7652 16.2055C11.5907 16.3299 11.4472 16.4929 11.3458 16.6817C11.2434 16.8721 11.1912 17.0956 11.1912 17.3483C11.1912 17.6047 11.2357 17.8263 11.3236 18.0077C11.4098 18.1875 11.5395 18.343 11.7009 18.46C11.8615 18.5769 12.0599 18.6633 12.2888 18.7146C12.5159 18.7665 12.7723 18.7926 13.0544 18.7926C13.3511 18.7926 13.646 18.7677 13.9317 18.7196C14.175 18.6776 14.4175 18.6305 14.6588 18.5782C14.7551 18.556 14.8621 18.5269 14.8621 18.5269C14.9335 18.5088 14.928 18.4324 14.928 18.4324L14.9264 15.795C14.9264 15.2163 14.7718 14.7859 14.4667 14.5203C14.1626 14.2547 13.7176 14.121 13.1407 14.121C12.9245 14.121 12.5747 14.1503 12.3659 14.1923C12.3659 14.1923 11.7359 14.3146 11.4758 14.5183C11.4758 14.5183 11.4187 14.5535 11.4498 14.6331L11.6549 15.1826C11.6804 15.2538 11.7498 15.2295 11.7498 15.2295C11.7498 15.2295 11.7716 15.2209 11.7973 15.2056C12.3522 14.9035 13.0555 14.9126 13.0555 14.9126C13.3668 14.9126 13.6086 14.9758 13.7698 15.0994C13.9275 15.2205 14.0079 15.4035 14.0079 15.7881V15.9102C13.7606 15.8743 13.5317 15.8536 13.5317 15.8536L13.5289 15.8469ZM36.789 14.3578C36.7932 14.3482 36.7954 14.3378 36.7954 14.3273C36.7955 14.3168 36.7934 14.3063 36.7894 14.2966C36.7853 14.2869 36.7794 14.2781 36.7718 14.2708C36.7643 14.2634 36.7554 14.2577 36.7456 14.2538C36.6963 14.2351 36.4507 14.1833 36.2621 14.1716C35.8995 14.1489 35.698 14.21 35.5167 14.2914C35.3375 14.3721 35.1394 14.502 35.0295 14.6522L35.0291 14.3005C35.0291 14.2522 34.9949 14.2132 34.9462 14.2132H34.2062C34.1582 14.2132 34.1234 14.2522 34.1234 14.3005V18.6046C34.1235 18.6278 34.1328 18.6501 34.1492 18.6665C34.1656 18.683 34.1879 18.6922 34.2112 18.6923H34.9694C34.9927 18.6922 35.0149 18.683 35.0313 18.6665C35.0477 18.6501 35.057 18.6278 35.057 18.6046V16.4434C35.057 16.154 35.0888 15.8665 35.1524 15.6851C35.215 15.5058 35.3002 15.3628 35.4051 15.2602C35.5052 15.1612 35.6277 15.0877 35.7623 15.0459C35.8885 15.0097 36.0192 14.9913 36.1505 14.9914C36.3017 14.9914 36.4674 15.0302 36.4674 15.0302C36.5231 15.0364 36.554 15.0024 36.5729 14.9522C36.6225 14.8201 36.7634 14.4247 36.7908 14.3459" fill="#FFFFFE"/>
<path fill-rule="evenodd" clip-rule="evenodd" d="M29.7071 12.3714C29.6134 12.343 29.5181 12.3204 29.4216 12.3036C29.2919 12.2819 29.1605 12.2718 29.0289 12.2732C28.5064 12.2732 28.0945 12.4208 27.8053 12.7124C27.5181 13.0018 27.3227 13.4426 27.2247 14.0227L27.1894 14.2184H26.5335C26.5335 14.2184 26.4535 14.2151 26.4366 14.3025L26.3289 14.9032C26.3214 14.9607 26.3462 14.9966 26.4231 14.9963H27.0615L26.4137 18.6122C26.363 18.9034 26.3049 19.143 26.2407 19.3245C26.1773 19.5036 26.1154 19.6379 26.0392 19.7353C25.9654 19.8296 25.8954 19.899 25.7747 19.9395C25.6751 19.973 25.5604 19.9884 25.4348 19.9884C25.3648 19.9884 25.2718 19.9767 25.2031 19.9629C25.1344 19.9494 25.0987 19.934 25.0473 19.9124C25.0473 19.9124 24.9723 19.8838 24.9429 19.9589C24.9189 20.0203 24.7487 20.4882 24.7286 20.5461C24.7081 20.6032 24.7368 20.6483 24.7731 20.6613C24.8581 20.6917 24.9212 20.7111 25.037 20.7384C25.1978 20.7763 25.3333 20.7787 25.4603 20.7787C25.7262 20.7787 25.9685 20.7413 26.1694 20.6688C26.3716 20.5957 26.5476 20.4684 26.7033 20.2961C26.8716 20.1102 26.9775 19.9155 27.0788 19.6499C27.1789 19.3868 27.2643 19.06 27.3326 18.6792L27.9835 14.9963H28.9352C28.9352 14.9963 29.0154 14.9992 29.0321 14.9122L29.1397 14.3115C29.1473 14.254 29.1227 14.2181 29.0454 14.2184H28.1218C28.1264 14.1976 28.1683 13.8727 28.2744 13.5668C28.3196 13.4362 28.4048 13.3309 28.4769 13.2586C28.5443 13.1896 28.6273 13.138 28.7189 13.108C28.8192 13.077 28.9239 13.0619 29.0289 13.0633C29.1159 13.0633 29.2013 13.0738 29.2663 13.0873C29.3559 13.1064 29.3907 13.1164 29.4141 13.1234C29.5082 13.1521 29.5209 13.1243 29.5394 13.0787L29.7603 12.4721C29.783 12.4069 29.7277 12.3794 29.7071 12.3714ZM16.7998 18.6199C16.7998 18.6683 16.7654 18.7076 16.717 18.7076H15.9509C15.9024 18.7076 15.8679 18.6683 15.8679 18.6199V12.4536C15.8679 12.4054 15.9024 12.3664 15.9509 12.3664H16.717C16.7654 12.3664 16.7998 12.4054 16.7998 12.4536V18.6199Z" fill="#FFFFFE"/>
</g>
</g>
<defs>
<clipPath id="clip0_10_531">
<rect width="50" height="34.9817" fill="white"/>
</clipPath>
</defs>
</svg>
