<svg width="50" height="58" viewBox="0 0 50 58" fill="none" xmlns="http://www.w3.org/2000/svg">
<path d="M43.7041 11.1981C43.6648 10.9129 43.415 10.7551 43.2086 10.7378C43.0026 10.7206 38.6421 10.3974 38.6421 10.3974C38.6421 10.3974 35.6137 7.39083 35.2813 7.05805C34.9487 6.72546 34.2992 6.82663 34.047 6.90084C34.0099 6.91177 33.3854 7.10453 32.3523 7.42422C31.3407 4.51319 29.5553 1.83806 26.4144 1.83806C26.3277 1.83806 26.2384 1.84158 26.1492 1.84666C25.2559 0.66533 24.1494 0.1521 23.1936 0.1521C15.877 0.1521 12.3814 9.29865 11.2854 13.9466C8.44237 14.8276 6.42265 15.4539 6.16467 15.5349C4.57772 16.0327 4.52753 16.0827 4.31915 17.5781C4.16233 18.7102 0.0100098 50.822 0.0100098 50.822L32.3658 56.8843L49.8972 53.0917C49.8972 53.0917 43.7429 11.4832 43.7043 11.1981H43.7041ZM30.564 7.97729L27.8262 8.82467C27.8271 8.63172 27.8281 8.4419 27.8281 8.2343C27.8281 6.42511 27.577 4.96841 27.1741 3.81365C28.7925 4.01675 29.8703 5.85817 30.564 7.97729ZM25.1665 4.1724C25.6164 5.29983 25.909 6.91783 25.909 9.1012C25.909 9.21291 25.908 9.31505 25.907 9.41836C24.1265 9.96987 22.1918 10.5686 20.2527 11.1694C21.3415 6.96743 23.3823 4.93795 25.1665 4.1724ZM22.9927 2.1146C23.3085 2.1146 23.6266 2.22181 23.9311 2.43136C21.5862 3.53477 19.0728 6.31379 18.0113 11.8634L13.5419 13.2477C14.7851 9.01469 17.7371 2.1146 22.9925 2.1146H22.9927Z" fill="#95BF46"/>
<path d="M43.2085 10.7378C43.0025 10.7207 38.642 10.3974 38.642 10.3974C38.642 10.3974 35.6135 7.39091 35.2812 7.05813C35.1568 6.93432 34.989 6.87085 34.8136 6.84351L32.3672 56.884L49.8971 53.0918C49.8971 53.0918 43.7426 11.4833 43.7039 11.1981C43.6647 10.913 43.4149 10.7552 43.2085 10.7378Z" fill="#5E8E3E"/>
<path d="M26.4143 20.4247L24.2526 26.8549C24.2526 26.8549 22.3587 25.8441 20.037 25.8441C16.6335 25.8441 16.4622 27.98 16.4622 28.5182C16.4622 31.455 24.1177 32.5803 24.1177 39.4593C24.1177 44.8715 20.685 48.3565 16.0566 48.3565C10.5025 48.3565 7.66211 44.8998 7.66211 44.8998L9.14926 39.9862C9.14926 39.9862 12.0689 42.4928 14.5325 42.4928C16.1423 42.4928 16.7971 41.2253 16.7971 40.2993C16.7971 36.4684 10.5165 36.2975 10.5165 30.0026C10.5165 24.7045 14.3193 19.5775 21.9954 19.5775C24.9532 19.5775 26.4143 20.4247 26.4143 20.4247Z" fill="white"/>
</svg>
